<svg width="20" height="20" viewBox="0 0 20 20" fill="none" xmlns="http://www.w3.org/2000/svg">
<path fill-rule="evenodd" clip-rule="evenodd" d="M18 10C18 14.4183 14.4183 18 10 18C5.58173 18 2 14.4183 2 10C2 5.58173 5.58173 2 10 2C14.4183 2 18 5.58173 18 10ZM13.7382 8.07835C14.0024 7.78114 13.9756 7.32605 13.6784 7.06187C13.3812 6.79768 12.9261 6.82445 12.662 7.12166L8.93342 11.3163L7.33822 9.52167C7.07404 9.22446 6.61894 9.19769 6.32174 9.46187C6.02453 9.72605 5.99776 10.1811 6.26194 10.4784L8.39528 12.8784C8.53192 13.0321 8.72776 13.12 8.93342 13.12C9.13908 13.12 9.33492 13.0321 9.47156 12.8784L13.7382 8.07835Z" fill="#667085"/>
</svg>
